<?xml version="1.0" encoding="utf-8"?>
<!-- Generator: Adobe Illustrator 26.0.2, SVG Export Plug-In . SVG Version: 6.00 Build 0)  -->
<svg version="1.1" id="Layer_1" xmlns="http://www.w3.org/2000/svg" xmlns:xlink="http://www.w3.org/1999/xlink" x="0px" y="0px"
	 viewBox="0 0 322.9 85" style="enable-background:new 0 0 322.9 85;" xml:space="preserve">
<style type="text/css">
	.st0{fill:#1AB099;}
	.st1{fill:#FFFFFF;}
	.st2{fill:#183357;}
</style>
<rect y="0" class="st0" width="85" height="85"/>
<path class="st1" d="M44.1,59.1l5.9-7c2.5,3.3,5.2,5,8.5,5c4.2,0,6.5-2.5,6.5-7.6V27.8H49v-8.5h26.5v29.6c0,11.3-5.7,16.8-16.4,16.8
	C52.9,65.8,47.5,63.4,44.1,59.1z"/>
<path class="st2" d="M93.3,44.9V19.3h10.6v25.2c0,8.7,3.8,12.3,10.2,12.3s10.2-3.6,10.2-12.3V19.3h10.4v25.6
	c0,13.4-7.7,20.9-20.7,20.9S93.3,58.3,93.3,44.9z"/>
<path class="st2" d="M174.2,55.6H153l-4,9.8h-10.9l20.4-45.7h10.4l20.4,45.7h-11.1L174.2,55.6z M170.9,47.6l-7.2-17.5l-7.2,17.5
	H170.9z"/>
<path class="st2" d="M223.2,65.4l-8.8-12.7h-9.7v12.7h-10.6V19.7h19.8c12.2,0,19.8,6.3,19.8,16.6c0,6.8-3.5,11.9-9.4,14.4l10.2,14.7
	H223.2z M213.3,28.3h-8.6v15.9h8.6c6.5,0,9.7-3,9.7-8S219.8,28.3,213.3,28.3z"/>
<path class="st2" d="M277.5,56.9v8.5h-35.3V19.7h34.5v8.5h-24v9.9h21.2v8.2h-21.2v10.6H277.5z"/>
<path class="st2" d="M322.9,56.7v8.6H283v-6.9l25-30.2h-24.5v-8.6h38.4v6.9l-25,30.2H322.9z"/>
</svg>
